<?xml version="1.0" encoding="UTF-8"?>
<svg version="1.1" xmlns="http://www.w3.org/2000/svg" viewbox="0 0 200 200" width="2484" height="1740">
<path  d="M0 0 C2.85503733 0.19828299 5.21720765 0.92791715 7.93437195 1.82824707 C10.16535312 2.33626737 12.3983441 2.83551086 14.63285828 3.32775879 C17.17963592 3.96352487 19.72362532 4.60670319 22.2664032 5.25793457 C23.65338329 5.60795435 25.04048129 5.95750718 26.4276886 6.30662537 C30.11036217 7.23613591 33.79030817 8.17600137 37.46941757 9.11951065 C39.75713922 9.70587868 42.04541418 10.29004343 44.33381653 10.87374878 C67.02750849 16.66760425 89.6362859 22.63857957 111.93437195 29.82824707 C112.61316406 30.04682373 113.29195618 30.26540039 113.99131775 30.49060059 C123.57669973 33.5853265 133.12251539 36.79344822 142.65849304 40.03674316 C147.53243991 41.69390139 152.41089299 43.33750572 157.28985596 44.97982788 C179.24856023 52.37336566 201.18562019 59.82126022 222.99687195 67.64074707 C223.78776215 67.92343445 224.57865234 68.20612183 225.39350891 68.49737549 C233.27705383 71.32027336 241.0946462 74.23621767 248.80375671 77.51257324 C252.52567339 79.07674769 256.27185067 80.57331287 260.0242157 82.06262207 C261.09087212 82.48645676 261.09087212 82.48645676 262.17907715 82.91885376 C263.65235826 83.50422418 265.12568156 84.08948842 266.5990448 84.6746521 C277.33398113 88.94247972 288.06505951 93.21592713 298.68437195 97.76574707 C299.42421326 98.08188965 300.16405457 98.39803223 300.92631531 98.72375488 C308.33454153 101.93296297 315.62903764 105.3932063 322.93437195 108.82824707 C323.61910583 109.15007965 324.30383972 109.47191223 325.00932312 109.80349731 C335.61059883 114.78829805 346.20071308 119.79678686 356.78782654 124.81158447 C358.15885364 125.46094039 359.52997829 126.1100904 360.90122986 126.75897217 C373.09290416 132.52835065 385.19856216 138.37811242 397.07499695 144.77355957 C400.75905505 146.75149106 404.49425559 148.60971924 408.24687195 150.45324707 C427.10128377 159.77669822 445.53077249 170.00645014 463.72294617 180.55285645 C465.75636662 181.72558645 467.79741886 182.88274859 469.8445282 184.03137207 C476.83769474 187.96046862 483.60794991 192.12218658 490.2898407 196.55480957 C493.18246414 198.41823024 496.1646071 200.05675888 499.1960907 201.68371582 C504.81829091 204.7166882 510.19301177 208.05436223 515.55937195 211.51574707 C516.50796082 212.12370117 517.45654968 212.73165527 518.43388367 213.35803223 C521.26996667 215.17745117 524.10253976 217.00222099 526.93437195 218.82824707 C528.52810414 219.85301435 530.12185294 220.8777558 531.71562195 221.90246582 C538.82569233 226.48201926 545.90500947 231.10404754 552.929245 235.8145752 C555.79463478 237.73461215 558.66462413 239.64754763 561.53593445 241.55871582 C578.61912147 252.94794489 595.51706252 264.49374418 611.93437195 276.82824707 C613.01333307 277.63225817 614.09271503 278.43570505 615.1726532 279.23840332 C618.10254766 281.42293898 621.01998681 283.62306592 623.93437195 285.82824707 C624.89657654 286.55261963 624.89657654 286.55261963 625.8782196 287.29162598 C633.93632791 293.3627523 641.8854917 299.50216844 649.53691101 306.08117676 C652.50283845 308.6301087 655.50982105 311.08526419 658.62187195 313.45324707 C662.72970503 316.59585161 666.51969759 320.02519831 670.3367157 323.51184082 C672.95530653 325.84691505 675.64114002 328.0632933 678.37187195 330.26574707 C683.1988494 334.17232628 687.79958039 338.27611672 692.3679657 342.48059082 C694.60996151 344.53148805 696.88228224 346.5330224 699.18437195 348.51574707 C702.32465345 351.24115398 705.24843962 354.12084991 708.16093445 357.08605957 C709.9823761 358.87540534 711.87151474 360.54113239 713.80937195 362.20324707 C716.81904725 364.79458912 719.64525811 367.5007949 722.43437195 370.32824707 C725.06144687 372.99094335 727.70166206 375.54089457 730.55937195 377.95324707 C739.35041072 385.50611137 747.66492075 393.95052589 755.1335907 402.80871582 C757.62063246 405.59787112 760.27672089 408.20254769 762.93437195 410.82824707 C766.79634677 414.64834009 770.51415293 418.50831886 774.03593445 422.64855957 C776.0540674 424.96567518 778.1374098 427.20991088 780.23490906 429.45495605 C785.20697284 434.77858769 789.95726709 440.19596648 794.52030945 445.87902832 C797.44109129 449.44729739 800.46361364 452.91811174 803.49687195 456.39074707 C807.72704004 461.24474104 811.87687135 466.13491298 815.8601532 471.19543457 C817.44895457 473.21210523 819.05029482 475.21515541 820.6648407 477.21105957 C830.52995841 489.42262435 840.06132662 501.87360089 848.93437195 514.82824707 C849.89762664 516.21646707 850.86119972 517.60446618 851.82499695 518.99230957 C859.50353797 530.08572873 866.85399406 541.34453887 873.93437195 552.82824707 C874.58454285 553.8822168 875.23471375 554.93618652 875.90458679 556.02209473 C880.9744469 564.25505785 885.97713363 572.52702268 890.93437195 580.82824707 C891.49205261 581.75991699 892.04973328 582.69158691 892.62431335 583.65148926 C909.67801865 612.35936654 924.51215551 642.84642833 936.93437195 673.82824707 C937.39456726 674.9735791 937.85476257 676.11891113 938.3289032 677.2989502 C941.13939409 684.32517743 943.89383378 691.37184071 946.61845398 698.4317627 C947.89661631 701.7307969 949.19236899 705.02237742 950.4929657 708.31262207 C960.73047152 734.33775337 969.00196375 760.73727469 976.27511597 787.71350098 C977.39070232 791.8475192 978.53549939 795.97096234 979.7195282 800.08605957 C983.44265619 813.10837053 986.09833022 826.22826733 988.45707703 839.56359863 C988.83872363 841.84790369 988.83872363 841.84790369 989.93437195 843.82824707 C990.78397458 841.86149965 991.51296685 839.84312986 992.20780945 837.81652832 C992.43084747 837.17234451 992.6538855 836.52816071 992.88368225 835.86445618 C994.73549006 830.49277276 996.52241224 825.09874428 998.31962585 819.70861816 C1003.63617989 803.87202969 1009.50810615 788.27293676 1015.55937195 772.70324707 C1015.95634277 771.68064789 1016.3533136 770.65804871 1016.76231384 769.60446167 C1021.02323525 758.64464857 1025.3527476 747.71335662 1029.7820282 736.82043457 C1030.1431369 735.92815155 1030.50424561 735.03586853 1030.876297 734.11654663 C1033.52267981 727.64770519 1036.5116279 721.42662807 1039.73124695 715.22277832 C1042.48448373 709.81391031 1044.97530587 704.28531749 1047.49687195 698.76574707 C1056.88648036 678.26638912 1066.63793641 657.88898927 1076.93437195 637.82824707 C1077.30836121 637.0981543 1077.68235046 636.36806152 1078.06767273 635.61584473 C1083.58716605 624.88090737 1089.39796771 614.37333207 1095.61601257 604.0279541 C1096.9767906 601.75747077 1098.32370514 599.4791772 1099.66874695 597.19934082 C1111.05313406 577.97077392 1123.03612206 559.07972518 1135.93437195 540.82824707 C1136.34848328 540.24075684 1136.7625946 539.6532666 1137.18925476 539.04797363 C1140.07860282 534.95604423 1142.99846686 530.88686921 1145.93437195 526.82824707 C1146.37249207 526.22125977 1146.81061218 525.61427246 1147.26200867 524.9888916 C1156.04780156 512.83684604 1165.22462503 501.03331634 1174.7664032 489.46496582 C1176.21265414 487.70601197 1177.64759414 485.93769724 1179.0710907 484.16027832 C1184.60121787 477.2798867 1190.48560413 470.81187432 1196.50614929 464.36535645 C1201.29187296 459.21477247 1205.96312804 453.96056818 1210.55937195 448.64074707 C1213.30117658 445.4883035 1216.19294193 442.54735924 1219.1726532 439.62121582 C1221.68968848 437.05953247 1224.01378599 434.34290911 1226.36405945 431.62902832 C1228.14028065 429.59211794 1229.91279057 427.62520829 1231.93437195 425.82824707 C1232.59437195 425.82824707 1233.25437195 425.82824707 1233.93437195 425.82824707 C1234.26437195 424.83824707 1234.59437195 423.84824707 1234.93437195 422.82824707 C1238.02984255 419.47482058 1241.37942353 416.67220581 1244.93437195 413.82824707 C1247.4241319 411.37564772 1249.87576002 408.88771953 1252.3289032 406.39855957 C1256.65579613 402.0227357 1261.02094475 397.78585411 1265.6960907 393.78527832 C1268.54091961 391.29791483 1271.29580746 388.71736817 1274.05937195 386.14074707 C1280.29817248 380.34569157 1286.71554047 374.78423118 1293.21562195 369.28527832 C1294.88745249 367.86802198 1296.55239483 366.4430838 1298.21562195 365.01574707 C1305.33004917 358.92597838 1312.60233784 353.07259224 1320.0007782 347.33215332 C1322.0566717 345.73312504 1324.10526032 344.12504668 1326.15312195 342.51574707 C1342.02537506 330.06685236 1358.20608448 318.10309396 1374.93437195 306.82824707 C1375.87538757 306.1914502 1376.8164032 305.55465332 1377.78593445 304.89855957 C1380.82446631 302.85827737 1383.87600435 300.83859976 1386.93437195 298.82824707 C1388.19459167 297.99970215 1388.19459167 297.99970215 1389.48027039 297.15441895 C1400.54072728 289.89185259 1411.60814932 282.67088583 1422.93437195 275.82824707 C1425.81132662 274.08144839 1428.68572378 272.33047904 1431.55937195 270.57824707 C1432.31395691 270.11877686 1433.06854187 269.65930664 1433.84599304 269.18591309 C1440.32578118 265.22831664 1446.74313048 261.17523962 1453.12626648 257.06359863 C1457.95331636 253.98204923 1462.87679098 251.16878019 1467.91947937 248.45544434 C1471.22468171 246.67156114 1474.508606 244.85096616 1477.7898407 243.02355957 C1500.73868193 230.26903554 1500.73868193 230.26903554 1510.10771179 225.70153809 C1515.88441298 222.88406726 1521.56079391 219.88618302 1527.24687195 216.89074707 C1537.35122158 211.58625401 1547.57966421 206.62182839 1557.93437195 201.82824707 C1559.82846448 200.94568656 1561.72182693 200.06157776 1563.61503601 199.17712402 C1564.83509157 198.60786299 1566.05580382 198.04000741 1567.27714539 197.47351074 C1570.48425495 195.98401458 1573.67800093 194.47220913 1576.85624695 192.92199707 C1592.61269437 185.27376784 1608.75164902 178.49045899 1624.88749695 171.69085693 C1626.74741028 170.9070379 1628.60655925 170.12140573 1630.46562195 169.33557129 C1652.34733641 160.12413961 1674.64284959 151.98300079 1696.93437195 143.82824707 C1697.68194763 143.55414001 1698.42952332 143.28003296 1699.19975281 142.99761963 C1727.02038356 132.799537 1755.22942196 123.87252946 1783.72245789 115.75012207 C1787.24786641 114.73826873 1790.76684013 113.70558986 1794.28593445 112.67199707 C1894.49652809 83.35805562 1996.99311377 62.72080182 2122.93437195 46.82824707 C2124.61910614 46.62135254 2124.61910614 46.62135254 2126.33787537 46.41027832 C2173.74776548 40.60435618 2221.32330998 36.50718908 2269.05522156 34.57336426 C2270.54276695 34.51187447 2270.54276695 34.51187447 2272.06036377 34.44914246 C2273.92722715 34.37376478 2275.79428297 34.30294607 2277.66152954 34.23774719 C2281.55481805 34.08141683 2285.25232012 33.82495781 2289.06962585 33.02331543 C2294.89037803 32.08919472 2294.89037803 32.08919472 2297.93437195 33.82824707 C2298.83471665 36.79829537 2299.26979276 39.22666944 2299.5789032 42.28137207 C2299.74597778 43.66085526 2299.74597778 43.66085526 2299.91642761 45.06820679 C2300.293014 48.31865014 2300.61906984 51.57129336 2300.93437195 54.82824707 C2301.05476837 56.05831482 2301.17516479 57.28838257 2301.29920959 58.5557251 C2302.19368848 67.89764077 2302.98397121 77.24697589 2303.74303055 86.60076141 C2303.93652582 88.97972833 2304.13224842 91.35850317 2304.32850647 93.73724365 C2306.01480337 114.21318952 2307.5588499 134.69147871 2308.74687195 155.20324707 C2308.80399353 156.1863385 2308.86111511 157.16942993 2308.91996765 158.18231201 C2309.24145404 163.80225134 2309.53402446 169.42299371 2309.80049133 175.04580688 C2309.88875643 176.88022007 2309.98109022 178.71444265 2310.07777405 180.5484314 C2311.32468253 204.39196669 2311.13457809 228.27231372 2311.12187195 252.14074707 C2311.12160507 253.26098267 2311.1213382 254.38121826 2311.12106323 255.53540039 C2311.09899727 329.32134176 2307.95088565 402.67597224 2300.22215271 476.09033203 C2299.95158744 478.66446074 2299.68484438 481.23895455 2299.41923523 483.81359863 C2293.09305936 544.78979173 2282.59522763 606.03063444 2269.36357117 665.88006592 C2268.93318593 667.83363055 2268.5090142 669.78844693 2268.0867157 671.74377441 C2253.37931696 739.64578218 2235.26357403 807.69927071 2210.93437195 872.82824707 C2210.50253601 873.99146484 2210.07070007 875.15468262 2209.6257782 876.35314941 C2198.10417979 907.23186806 2184.79497142 937.3912271 2171.30937195 967.45324707 C2170.94382202 968.27001923 2170.57827209 969.08679138 2170.2016449 969.92831421 C2165.64801351 980.08680163 2160.88417142 990.10682567 2155.84080505 1000.03123474 C2154.3049336 1003.07611464 2152.81046576 1006.14109307 2151.30937195 1009.20324707 C2139.63918329 1032.69016786 2126.5729844 1055.28972913 2112.48417664 1077.39025879 C2110.91032537 1079.86607459 2109.34657733 1082.34799301 2107.78593445 1084.83215332 C2102.2872047 1093.58279227 2096.71231293 1102.25885358 2090.93437195 1110.82824707 C2090.30273132 1111.78602051 2089.6710907 1112.74379395 2089.02030945 1113.73059082 C2084.25291634 1120.95765488 2079.28096313 1128.01429231 2074.22099304 1135.03723145 C2072.93836754 1136.82268508 2071.66358393 1138.6134643 2070.3914032 1140.40637207 C2065.02199861 1147.97027413 2059.5496072 1155.44382811 2053.93437195 1162.82824707 C2053.53218445 1163.35805176 2053.12999695 1163.88785645 2052.71562195 1164.43371582 C2046.94196671 1172.02968099 2041.01020397 1179.47045758 2034.93437195 1186.82824707 C2033.49677893 1188.59900489 2032.05928028 1190.36983933 2030.62187195 1192.14074707 C2023.19637009 1201.21491805 2015.53693553 1210.09728467 2007.71562195 1218.83215332 C2006.00055467 1220.75408179 2004.30934113 1222.69458568 2002.62187195 1224.64074707 C1999.10600466 1228.67508327 1995.48334425 1232.60834411 1991.84135437 1236.52868652 C1989.69384282 1238.85248345 1987.66021155 1241.18392772 1985.7273407 1243.69152832 C1985.13566101 1244.39664551 1984.54398132 1245.1017627 1983.93437195 1245.82824707 C1983.27437195 1245.82824707 1982.61437195 1245.82824707 1981.93437195 1245.82824707 C1981.93437195 1246.48824707 1981.93437195 1247.14824707 1981.93437195 1247.82824707 C1981.27437195 1247.82824707 1980.61437195 1247.82824707 1979.93437195 1247.82824707 C1979.24064639 1249.14770418 1978.57801077 1250.48364628 1977.93437195 1251.82824707 C1976.64433289 1253.37225342 1976.64433289 1253.37225342 1975.16874695 1254.85266113 C1974.33778503 1255.69307953 1974.33778503 1255.69307953 1973.49003601 1256.55047607 C1972.89416687 1257.14229675 1972.29829773 1257.73411743 1971.68437195 1258.34387207 C1971.07045593 1258.95970154 1970.45653992 1259.57553101 1969.82402039 1260.21002197 C1968.52862711 1261.50677353 1967.23071551 1262.80101364 1965.9304657 1264.09289551 C1963.93462127 1266.07799909 1961.94970469 1268.07358298 1959.96562195 1270.07043457 C1958.7058464 1271.32888918 1957.44545094 1272.58672361 1956.18437195 1273.84387207 C1955.58850281 1274.44378967 1954.99263367 1275.04370728 1954.37870789 1275.6618042 C1950.16430442 1279.82824707 1950.16430442 1279.82824707 1947.93437195 1279.82824707 C1947.93437195 1280.48824707 1947.93437195 1281.14824707 1947.93437195 1281.82824707 C1946.47880554 1283.2779541 1946.47880554 1283.2779541 1944.45780945 1284.96105957 C1940.01823388 1288.73655433 1935.78445202 1292.6908226 1931.55937195 1296.70324707 C1925.42626683 1302.50058367 1919.26415507 1308.24523612 1912.93437195 1313.82824707 C1912.24601257 1314.44570801 1911.5576532 1315.06316895 1910.84843445 1315.69934082 C1906.17600012 1319.82824707 1906.17600012 1319.82824707 1903.93437195 1319.82824707 C1903.93437195 1320.48824707 1903.93437195 1321.14824707 1903.93437195 1321.82824707 C1902.38548693 1323.24531209 1900.76675661 1324.58634203 1899.12187195 1325.89074707 C1898.1267157 1326.68480957 1897.13155945 1327.47887207 1896.10624695 1328.29699707 C1895.58482117 1328.71078613 1895.06339539 1329.1245752 1894.52616882 1329.55090332 C1892.94209571 1330.82204911 1891.38088202 1332.11655231 1889.82499695 1333.42199707 C1888.8504657 1334.23668457 1887.87593445 1335.05137207 1886.87187195 1335.89074707 C1885.5241571 1337.02189941 1885.5241571 1337.02189941 1884.1492157 1338.17590332 C1881.93437195 1339.82824707 1881.93437195 1339.82824707 1879.93437195 1339.82824707 C1879.93437195 1340.48824707 1879.93437195 1341.14824707 1879.93437195 1341.82824707 C1878.09062195 1343.31652832 1878.09062195 1343.31652832 1875.43437195 1345.14074707 C1870.48817925 1348.63927361 1865.79186722 1352.34535148 1861.12187195 1356.20324707 C1853.95289773 1362.09684835 1846.55637254 1367.53912646 1838.93437195 1372.82824707 C1837.33005202 1373.95302849 1835.72587346 1375.07801161 1834.12187195 1376.20324707 C1833.33554382 1376.75109863 1832.5492157 1377.2989502 1831.73905945 1377.86340332 C1829.5090621 1379.4256438 1827.28633059 1380.99679182 1825.06718445 1382.57434082 C1809.67046654 1393.51155172 1793.95257079 1403.82422059 1777.93437195 1413.82824707 C1776.87218445 1414.49211426 1775.80999695 1415.15598145 1774.71562195 1415.83996582 C1771.46574901 1417.85366397 1768.20383406 1419.84659062 1764.93437195 1421.82824707 C1764.06070984 1422.35789062 1763.18704773 1422.88753418 1762.28691101 1423.43322754 C1733.34520464 1440.94957432 1703.98754131 1457.5901352 1673.6125946 1472.50378418 C1670.88322594 1473.85354033 1668.16277095 1475.22051746 1665.44264221 1476.58877563 C1656.37223223 1481.14571146 1647.23879656 1485.55799117 1638.05937195 1489.89074707 C1637.29511902 1490.25175507 1636.53086609 1490.61276306 1635.74345398 1490.98471069 C1613.30627118 1501.56735441 1590.68534395 1511.85516355 1567.54374695 1520.81213379 C1564.54281362 1521.98072328 1561.55107903 1523.17139503 1558.55937195 1524.36340332 C1514.49823296 1541.88100995 1469.58670045 1557.25637328 1424.24687195 1571.11975098 C1421.94615983 1571.82463554 1419.64718242 1572.534955 1417.34843445 1573.24621582 C1351.72484666 1593.49100992 1284.24609537 1607.99746612 1216.7396698 1620.3157959 C1213.97164149 1620.82143894 1211.20445889 1621.33153353 1208.43730164 1621.84191895 C1173.38497563 1628.27544874 1138.096064 1632.86646182 1102.75230408 1637.34399414 C1099.18164993 1637.79688321 1095.61140945 1638.25287961 1092.04130554 1638.71008301 C1087.1403504 1639.33683239 1082.23859181 1639.95666082 1077.3356781 1640.56790161 C1075.63828376 1640.77958067 1073.94105191 1640.99256765 1072.2440033 1641.20700073 C1067.47909115 1641.80617586 1062.71254375 1642.34288576 1057.93437195 1642.82824707 C1056.92423035 1642.95957031 1055.91408875 1643.09089355 1054.87333679 1643.22619629 C1052.3210907 1643.44934082 1052.3210907 1643.44934082 1048.93437195 1642.82824707 C1049.08997365 1635.08706225 1051.65001846 1627.4331039 1053.5476532 1619.95715332 C1053.91712039 1618.48862774 1054.28633687 1617.02003908 1054.65531921 1615.5513916 C1055.84428829 1610.82907917 1057.04513292 1606.10982285 1058.24687195 1601.39074707 C1058.65968342 1599.7662304 1059.07247429 1598.14170849 1059.48524475 1596.5171814 C1069.0363778 1558.96721594 1079.93286006 1522.0196005 1092.13365173 1485.24542236 C1092.9298784 1482.84181198 1093.72258122 1480.4370703 1094.51396179 1478.03186035 C1107.38219979 1438.9237858 1121.68830627 1400.66208041 1137.93437195 1362.82824707 C1138.43017761 1361.66921875 1138.92598328 1360.51019043 1139.43681335 1359.31604004 C1147.16310583 1341.26853188 1155.16734447 1323.35844845 1163.34141541 1305.50953674 C1165.17642197 1301.49906073 1166.99163412 1297.48040689 1168.7898407 1293.45324707 C1172.79609232 1284.49564436 1176.93481725 1275.69672345 1181.6204071 1267.07287598 C1184.34551574 1262.03446881 1186.79183867 1256.90652067 1189.18437195 1251.70324707 C1193.49910182 1242.39422695 1198.50769188 1233.54163839 1203.61405945 1224.64855957 C1206.7915069 1219.1106172 1209.84186703 1213.51031393 1212.87187195 1207.89074707 C1218.14390361 1198.15368066 1223.68267839 1188.58789783 1229.29374695 1179.04309082 C1232.43215876 1173.70185321 1235.51904742 1168.33243929 1238.5969696 1162.95617676 C1245.23717866 1151.36866212 1252.09683493 1139.95291601 1259.18632507 1128.63586426 C1261.12340255 1125.52463647 1263.03842185 1122.40051884 1264.94999695 1119.27355957 C1271.41363634 1108.70213716 1277.89527475 1098.16989766 1284.8523407 1087.91418457 C1286.72213734 1085.14281619 1288.52927191 1082.34521395 1290.30937195 1079.51574707 C1294.87953692 1072.27875643 1299.67005636 1065.18751545 1304.43095398 1058.07531738 C1306.68643372 1054.70418462 1308.93527795 1051.32864175 1311.18437195 1047.95324707 C1312.00858683 1046.71756741 1312.83280548 1045.48189026 1313.6570282 1044.24621582 C1315.04300471 1042.16753871 1316.42560502 1040.08678254 1317.8054657 1038.00402832 C1331.60030357 1017.2079394 1345.56050045 996.49594463 1360.93437195 976.82824707 C1362.6259968 974.64391595 1364.31209964 972.45536631 1365.99687195 970.26574707 C1366.41211121 969.72659668 1366.82735046 969.18744629 1367.25517273 968.63195801 C1370.00860266 965.05066419 1372.72920325 961.44623191 1375.43437195 957.82824707 C1383.31663137 947.29091079 1391.40694908 936.92018192 1399.55204773 926.58557129 C1400.91093814 924.85803805 1402.26520903 923.12699242 1403.6179657 921.39465332 C1409.03468635 914.46436474 1414.53168686 907.60667061 1420.0957489 900.79406738 C1423.61891812 896.47248024 1427.07586013 892.10594054 1430.49687195 887.70324707 C1434.65942817 882.35484635 1439.00814428 877.19998548 1443.44975281 872.08215332 C1447.41839505 867.48708624 1451.18765086 862.76081874 1454.90849304 857.96398926 C1458.82831 852.92156876 1462.90665963 848.02813479 1467.03593445 843.15637207 C1468.9459828 840.98723718 1468.9459828 840.98723718 1469.93437195 838.82824707 C1470.59437195 838.82824707 1471.25437195 838.82824707 1471.93437195 838.82824707 C1472.62066209 837.50490733 1473.28218724 836.1687236 1473.93437195 834.82824707 C1478.86702172 828.30004674 1484.32796476 822.1947388 1489.8289032 816.14465332 C1495.0408419 810.41055379 1500.07268298 804.5178842 1505.12187195 798.64074707 C1505.88914612 797.74887695 1505.88914612 797.74887695 1506.67192078 796.83898926 C1507.41091614 795.97708984 1507.41091614 795.97708984 1508.1648407 795.09777832 C1508.63841003 794.54557617 1509.11197937 793.99337402 1509.59989929 793.42443848 C1510.83205408 791.95063167 1512.00542791 790.42821057 1513.1726532 788.90246582 C1513.75402039 788.21797363 1514.33538757 787.53348145 1514.93437195 786.82824707 C1515.59437195 786.82824707 1516.25437195 786.82824707 1516.93437195 786.82824707 C1517.61846469 785.50377006 1518.28165222 784.16846317 1518.93437195 782.82824707 C1520.03873789 781.51273983 1521.1935302 780.23864516 1522.3835907 779.00012207 C1523.40936218 777.92311035 1523.40936218 777.92311035 1524.45585632 776.82434082 C1525.17064148 776.08312988 1525.88542664 775.34191895 1526.62187195 774.57824707 C1531.86610207 769.10558431 1536.977765 763.56286694 1541.93437195 757.82824707 C1546.68039997 752.45814718 1551.4575793 747.17626962 1556.62187195 742.20324707 C1558.05001508 740.84203234 1558.05001508 740.84203234 1558.93437195 738.82824707 C1559.59437195 738.82824707 1560.25437195 738.82824707 1560.93437195 738.82824707 C1561.62473808 737.50702914 1562.28628631 736.17071019 1562.93437195 734.82824707 C1564.05742086 733.37675932 1565.22659177 731.96002947 1566.43437195 730.57824707 C1567.3470282 729.5186377 1567.3470282 729.5186377 1568.27812195 728.43762207 C1569.93437195 726.82824707 1569.93437195 726.82824707 1571.93437195 726.82824707 C1572.33462585 725.99680176 1572.33462585 725.99680176 1572.7429657 725.14855957 C1574.32650943 722.06454325 1576.50649462 720.10404248 1578.99687195 717.70324707 C1582.39890678 714.58718942 1582.39890678 714.58718942 1584.93437195 710.82824707 C1585.59437195 710.82824707 1586.25437195 710.82824707 1586.93437195 710.82824707 C1587.31528992 710.0161377 1587.31528992 710.0161377 1587.7039032 709.18762207 C1589.41621508 705.90433199 1591.97944535 703.6134165 1594.62187195 701.07824707 C1597.95557395 697.85950031 1601.16458256 694.60889407 1604.18173218 691.08825684 C1607.71105249 687.03473917 1611.41415264 683.20049274 1615.21488953 679.40246582 C1616.25035919 678.36195824 1616.25035919 678.36195824 1617.30674744 677.3004303 C1619.56152188 675.03624901 1621.81996104 672.77576979 1624.0789032 670.51574707 C1625.6560178 668.93541625 1627.23305827 667.35501144 1628.81002808 665.77453613 C1632.10059951 662.47800178 1635.39320608 659.18351566 1638.6870575 655.89025879 C1642.91691623 651.66050233 1647.13981661 647.42387022 1651.36104298 643.1855011 C1654.60801534 639.92744903 1657.85948303 636.67391268 1661.11226463 633.42166138 C1662.67246109 631.86028177 1664.23102918 630.2972733 1665.78795815 628.7326355 C1667.95422778 626.55663353 1670.12666204 624.38698129 1672.30082703 622.21887207 C1672.9465416 621.56753799 1673.59225616 620.91620392 1674.25753784 620.24513245 C1678.70604697 615.82824707 1678.70604697 615.82824707 1680.93437195 615.82824707 C1680.93437195 615.16824707 1680.93437195 614.50824707 1680.93437195 613.82824707 C1682.54374695 612.17199707 1682.54374695 612.17199707 1684.68437195 610.32824707 C1685.72851257 609.41559082 1685.72851257 609.41559082 1686.79374695 608.48449707 C1688.93437195 606.82824707 1688.93437195 606.82824707 1691.19999695 605.73449707 C1691.7723407 605.43543457 1692.34468445 605.13637207 1692.93437195 604.82824707 C1692.93437195 604.16824707 1692.93437195 603.50824707 1692.93437195 602.82824707 C1693.59437195 602.82824707 1694.25437195 602.82824707 1694.93437195 602.82824707 C1694.93437195 602.16824707 1694.93437195 601.50824707 1694.93437195 600.82824707 C1695.59437195 600.82824707 1696.25437195 600.82824707 1696.93437195 600.82824707 C1697.60903103 599.49893998 1698.27440896 598.16491123 1698.93437195 596.82824707 C1700.38749695 595.36340332 1700.38749695 595.36340332 1702.18437195 593.89074707 C1706.16262087 590.53342266 1709.95733584 587.01920568 1713.74687195 583.45324707 C1718.81877253 578.69842496 1724.03542627 574.23164494 1729.4695282 569.89074707 C1732.57443222 567.29266574 1735.3473779 564.44461236 1738.16093445 561.53918457 C1740.521649 559.26166701 1743.1833191 557.60114779 1745.93437195 555.82824707 C1748.6900085 553.26049483 1750.84409928 550.96365608 1752.93437195 547.82824707 C1751.57312195 548.75637207 1751.57312195 548.75637207 1750.18437195 549.70324707 C1749.11187195 550.40449707 1748.03937195 551.10574707 1746.93437195 551.82824707 C1746.27437195 551.49824707 1745.61437195 551.16824707 1744.93437195 550.82824707 C1747.1726532 548.87512207 1747.1726532 548.87512207 1750.24687195 546.57824707 C1751.84934035 545.37991436 1753.44944213 544.169474 1754.93437195 542.82824707 C1749.76053154 544.6624758 1745.37701552 547.30181543 1740.87187195 550.39074707 C1740.22266785 550.82983398 1739.57346375 551.2689209 1738.90458679 551.72131348 C1733.4030137 555.46152919 1727.98399913 559.31464719 1722.5867157 563.20324707 C1718.61688986 566.06282148 1714.62087654 568.88467978 1710.62187195 571.70324707 C1709.90990662 572.20509521 1709.19794128 572.70694336 1708.46440125 573.22399902 C1707.01366383 574.24658044 1705.56289872 575.26912256 1704.11210632 576.29162598 C1701.9521541 577.81569989 1699.79447997 579.34294321 1697.63749695 580.87121582 C1690.66764858 585.80633355 1683.67643812 590.70236101 1676.62187195 595.51574707 C1670.83497797 599.46577799 1665.21633448 603.57796239 1659.6335907 607.81262207 C1648.89948823 615.82824707 1648.89948823 615.82824707 1645.93437195 615.82824707 C1645.93437195 616.48824707 1645.93437195 617.14824707 1645.93437195 617.82824707 C1644.27723039 619.06655065 1642.55409034 620.21672935 1640.80937195 621.32824707 C1636.08676152 624.39877823 1631.44665095 627.54162288 1626.87187195 630.82824707 C1626.27858093 631.25444336 1625.68528992 631.68063965 1625.07402039 632.11975098 C1623.35945997 633.35406481 1621.64678814 634.59096102 1619.93437195 635.82824707 C1619.02042664 636.48566895 1618.10648132 637.14309082 1617.1648407 637.82043457 C1609.71498957 643.20398516 1602.37274191 648.7294116 1595.02812195 654.25500488 C1592.95736413 655.81097076 1590.88388493 657.36322976 1588.80937195 658.91418457 C1576.90762105 667.81376905 1565.12226333 676.81691048 1553.60551453 686.21154785 C1531.81832803 703.98092006 1531.81832803 703.98092006 1525.6101532 706.93371582 C1525.05714539 707.22891113 1524.50413757 707.52410645 1523.93437195 707.82824707 C1523.93437195 708.48824707 1523.93437195 709.14824707 1523.93437195 709.82824707 C1522.35720955 711.07858304 1520.71935873 712.25266749 1519.05937195 713.39074707 C1515.19613641 716.12700052 1511.59659867 718.92619124 1508.12187195 722.14074707 C1504.30200761 725.6653853 1500.35660202 728.90583385 1496.24687195 732.07824707 C1486.68769991 739.47876948 1477.63100277 747.45266781 1468.68437195 755.57824707 C1465.43427182 758.52899587 1462.10819862 761.33122334 1458.68437195 764.07824707 C1453.56558892 768.21544529 1448.75119837 772.61997869 1443.96855164 777.13586426 C1441.06313297 779.875259 1438.13266102 782.58148963 1435.13749695 785.22277832 C1434.57192078 785.72269287 1434.0063446 786.22260742 1433.42362976 786.7376709 C1431.93437195 787.82824707 1431.93437195 787.82824707 1429.93437195 787.82824707 C1429.93437195 788.48824707 1429.93437195 789.14824707 1429.93437195 789.82824707 C1428.25582064 791.32453886 1426.51478297 792.75117368 1424.74687195 794.14074707 C1421.71768855 796.52921966 1418.8990943 798.86422927 1416.1960907 801.62121582 C1413.93437195 803.82824707 1413.93437195 803.82824707 1411.93437195 803.82824707 C1411.93437195 804.48824707 1411.93437195 805.14824707 1411.93437195 805.82824707 C1410.2898407 807.44934082 1410.2898407 807.44934082 1408.12187195 809.26574707 C1405.10973929 811.80164039 1405.10973929 811.80164039 1402.2976532 814.55090332 C1400.93437195 815.82824707 1400.93437195 815.82824707 1398.93437195 815.82824707 C1398.93437195 816.48824707 1398.93437195 817.14824707 1398.93437195 817.82824707 C1397.4304657 819.32849121 1397.4304657 819.32849121 1395.37187195 821.05090332 C1391.47170932 824.37031805 1387.67592511 827.76899181 1383.93437195 831.26574707 C1383.27936707 831.87684326 1382.62436218 832.48793945 1381.94950867 833.11755371 C1377.42646609 837.37789173 1373.00776689 841.73256481 1368.62968445 846.14074707 C1368.08745239 846.68626724 1367.54522034 847.23178741 1366.98655701 847.7938385 C1364.26042671 850.53945416 1361.54203224 853.29226631 1358.83280945 856.05456543 C1357.82770564 857.07167719 1356.82250192 858.08869024 1355.81718445 859.10559082 C1354.92402527 860.01558838 1354.03086609 860.92558594 1353.11064148 861.86315918 C1350.93437195 863.82824707 1350.93437195 863.82824707 1348.93437195 863.82824707 C1348.60437195 864.48824707 1348.27437195 865.14824707 1347.93437195 865.82824707 C1347.60437195 866.48824707 1347.27437195 867.14824707 1346.93437195 867.82824707 C1346.27437195 867.82824707 1345.61437195 867.82824707 1344.93437195 867.82824707 C1344.53218445 868.69449707 1344.53218445 868.69449707 1344.12187195 869.57824707 C1342.59019837 872.48036543 1340.5055904 873.82144242 1337.93437195 875.82824707 C1337.37749695 876.57074707 1336.82062195 877.31324707 1336.24687195 878.07824707 C1335.59718445 878.94449707 1335.59718445 878.94449707 1334.93437195 879.82824707 C1334.27437195 879.82824707 1333.61437195 879.82824707 1332.93437195 879.82824707 C1332.93437195 880.48824707 1332.93437195 881.14824707 1332.93437195 881.82824707 C1328.63204637 886.59568893 1328.63204637 886.59568893 1324.93437195 887.82824707 C1324.24084293 889.1478075 1323.57789468 890.48359071 1322.93437195 891.82824707 C1321.25785828 893.71594238 1321.25785828 893.71594238 1319.2664032 895.65637207 C1318.53743835 896.37437988 1317.80847351 897.0923877 1317.05741882 897.83215332 C1315.91369812 898.94396973 1315.91369812 898.94396973 1314.74687195 900.07824707 C1309.79370487 904.91542498 1305.008073 909.78917591 1300.49565125 915.04211426 C1297.69146477 918.25015621 1294.60990255 921.17049359 1291.55937195 924.14074707 C1288.84846877 926.91619557 1286.31738734 929.80115305 1283.77714539 932.73156738 C1280.78730353 936.13336413 1277.6714505 939.41361217 1274.55937195 942.70324707 C1267.12496418 950.59864666 1259.84827006 958.60907807 1252.7273407 966.78918457 C1250.75596152 969.0311452 1248.75274504 971.2421051 1246.74687195 973.45324707 C1238.64819873 982.43491022 1230.83719292 991.6581053 1223.21562195 1001.04699707 C1220.63594056 1004.19208808 1218.00793674 1007.29294257 1215.37187195 1010.39074707 C1210.78533928 1015.78731931 1206.32988068 1021.27458563 1201.93437195 1026.82824707 C1200.6641503 1028.41207116 1199.39330249 1029.99539326 1198.12187195 1031.57824707 C1194.49522428 1036.10802879 1190.91891351 1040.67590724 1187.34428406 1045.2467041 C1184.3712735 1049.03531039 1181.34796029 1052.77738086 1178.29032898 1056.4979248 C1172.12835292 1064.00039764 1166.24552287 1071.67433588 1160.45756531 1079.46862793 C1156.65669616 1084.57425107 1152.76652227 1089.58109216 1148.74687195 1094.51574707 C1139.32703803 1106.13458714 1131.03087548 1118.59302935 1122.64945984 1130.96984863 C1119.95056919 1134.94257383 1117.19095542 1138.85216609 1114.3367157 1142.71496582 C1108.3701101 1150.87979454 1102.8393758 1159.34264664 1097.24687195 1167.76574707 C1096.07488602 1169.52782582 1094.90284799 1171.28986991 1093.73075867 1173.05187988 C1086.05727145 1184.59548419 1078.39728329 1196.14693832 1070.93437195 1207.82824707 C1070.19090515 1208.99178711 1070.19090515 1208.99178711 1069.43241882 1210.17883301 C1055.09657573 1232.6612772 1041.20879436 1255.44452511 1028.2273407 1278.73840332 C1026.5644636 1281.71751103 1024.87535529 1284.6803149 1023.1726532 1287.63684082 C1017.75246032 1297.04972668 1012.4520788 1306.5105085 1007.30937195 1316.07824707 C1003.3881103 1323.35298852 999.44085616 1330.6078002 995.30937195 1337.76574707 C994.90766785 1338.47569824 994.50596375 1339.18564941 994.09208679 1339.91711426 C991.28721426 1344.71063297 991.28721426 1344.71063297 987.93437195 1345.82824707 C986.83451843 1344.39147949 986.83451843 1344.39147949 985.8054657 1342.18371582 C985.41576599 1341.37120361 985.02606628 1340.55869141 984.6245575 1339.72155762 C984.21117126 1338.82864014 983.79778503 1337.93572266 983.37187195 1337.01574707 C982.47407507 1335.14959921 981.5729643 1333.28504245 980.66874695 1331.42199707 C979.98328796 1330.00467285 979.98328796 1330.00467285 979.28398132 1328.55871582 C977.3483786 1324.64269178 975.26194451 1320.82302978 973.12187195 1317.01574707 C972.71622009 1316.29322754 972.31056824 1315.57070801 971.8926239 1314.82629395 C971.03611252 1313.30639477 970.17774461 1311.78754054 969.31767273 1310.26965332 C967.81930198 1307.62515853 966.32772905 1304.97689659 964.8367157 1302.32824707 C961.54649548 1296.48890958 958.24257699 1290.6574105 954.93437195 1284.82824707 C954.14014832 1283.4276001 954.14014832 1283.4276001 953.32987976 1281.99865723 C947.00613613 1270.85467628 940.62387199 1259.75717277 933.93437195 1248.82824707 C933.43260437 1248.00791992 932.93083679 1247.18759277 932.41386414 1246.34240723 C923.86052643 1232.38241853 923.86052643 1232.38241853 914.87797546 1218.69714355 C913.02170316 1215.95715412 911.18427637 1213.20564547 909.3523407 1210.44934082 C904.89808155 1203.7635897 900.41012337 1197.1009901 895.90800476 1190.4473877 C895.01170146 1189.12207898 894.11618836 1187.79623549 893.22148132 1186.46984863 C888.00866711 1178.74221409 882.73872521 1171.06679249 877.27900696 1163.51089478 C874.82447078 1160.10868905 872.47249282 1156.65683921 870.18437195 1153.14074707 C865.02215037 1145.32485335 859.38498939 1137.85777462 853.79862976 1130.34240723 C851.94831451 1127.84705018 850.10758346 1125.3449369 848.27030945 1122.83996582 C839.48638346 1110.86480443 830.50952743 1099.06843318 821.31596375 1087.40466309 C818.72435618 1084.11505522 816.14593499 1080.81589099 813.58280945 1077.50402832 C807.35255237 1069.45490865 801.06562675 1061.46550837 794.61845398 1053.58874512 C791.16179003 1049.3603633 787.78094227 1045.08152604 784.43437195 1040.76574707 C780.01781627 1035.08662463 775.37341162 1029.63645468 770.63188171 1024.22692871 C767.46540934 1020.61140499 764.38092106 1016.95231549 761.37187195 1013.20324707 C757.56278196 1008.49255596 753.50553151 1004.07279272 749.366745 999.65490723 C746.32974811 996.39524533 743.45665699 993.07005648 740.68437195 989.57824707 C735.40652917 983.0002058 729.55758637 976.97258513 723.7507782 970.86340332 C720.73573752 967.68901623 717.78255968 964.47340224 714.87187195 961.20324707 C711.89357529 957.85760832 708.8097518 954.67597015 705.61405945 951.53918457 C703.18245283 949.06233876 700.94910888 946.42570958 698.68437195 943.79699707 C696.99638909 941.89801636 695.24667461 940.10818719 693.43437195 938.32824707 C690.39272424 935.3406731 687.61838786 932.18836358 684.8445282 928.95324707 C681.93524859 925.71674787 678.79808445 922.72101999 675.6570282 919.71105957 C673.93437195 917.82824707 673.93437195 917.82824707 673.93437195 915.82824707 C673.04685242 915.3854541 673.04685242 915.3854541 672.1414032 914.93371582 C669.61118002 913.66636509 668.41261577 912.31613754 666.62187195 910.14074707 C662.27463334 905.01323487 657.74547279 900.22941253 652.49687195 896.01574707 C651.65124695 895.29387207 650.80562195 894.57199707 649.93437195 893.82824707 C649.93437195 893.16824707 649.93437195 892.50824707 649.93437195 891.82824707 C649.27437195 891.49824707 648.61437195 891.16824707 647.93437195 890.82824707 C647.27437195 890.49824707 646.61437195 890.16824707 645.93437195 889.82824707 C645.93437195 889.16824707 645.93437195 888.50824707 645.93437195 887.82824707 C645.27437195 887.49824707 644.61437195 887.16824707 643.93437195 886.82824707 C643.27437195 886.49824707 642.61437195 886.16824707 641.93437195 885.82824707 C641.93437195 885.16824707 641.93437195 884.50824707 641.93437195 883.82824707 C640.6036522 883.15637865 639.26972502 882.49085887 637.93437195 881.82824707 C636.5395272 880.582211 635.19381302 879.28008578 633.88749695 877.94152832 C633.12437195 877.16744629 632.36124695 876.39336426 631.57499695 875.5958252 C630.7860907 874.78564941 629.99718445 873.97547363 629.18437195 873.14074707 C624.20393272 868.04824796 619.20362115 863.10511449 613.79667664 858.46569824 C610.86834395 855.89093063 608.15828327 853.11572053 605.43437195 850.32824707 C597.51993034 842.29499684 597.51993034 842.29499684 588.7195282 835.27355957 C587.83587585 834.55812988 587.83587585 834.55812988 586.93437195 833.82824707 C586.93437195 833.16824707 586.93437195 832.50824707 586.93437195 831.82824707 C586.40972351 831.58203613 585.88507507 831.3358252 585.3445282 831.08215332 C581.80302528 829.23965342 579.23568109 826.51721938 576.37187195 823.76574707 C571.2954466 818.96379442 566.1028267 814.43964926 560.64530945 810.07043457 C557.64531426 807.58917054 554.7830366 804.97939822 551.93437195 802.32824707 C547.40456547 798.1179104 542.73144117 794.15186125 537.9148407 790.27355957 C534.36147176 787.35821363 530.89702601 784.35024712 527.43437195 781.32824707 C522.19287117 776.75511674 516.87460416 772.30472165 511.46562195 767.92980957 C508.94705288 765.83877537 506.53209112 763.66783157 504.12187195 761.45324707 C499.77114121 757.49244032 495.23629298 753.85865424 490.58818054 750.25964355 C486.61251749 747.17281383 482.71855413 744.005349 478.85624695 740.7779541 C471.41985441 734.56546784 463.80479165 728.7075037 455.96220398 723.01745605 C450.71237997 719.19095823 445.62964991 715.21558484 440.62187195 711.07824707 C434.80732029 706.28231343 428.85636425 701.80837402 422.6882782 697.48059082 C418.26260134 694.37198009 413.91101312 691.16432309 409.55937195 687.95324707 C408.75241882 687.35810303 407.9454657 686.76295898 407.11405945 686.14978027 C401.92972009 682.31925666 396.77057345 678.45647339 391.62187195 674.57824707 C381.78703621 667.17958566 371.81689307 660.03484831 361.54374695 653.25402832 C355.72016314 649.37107416 350.00981435 645.32045352 344.27177429 641.31286621 C336.92941547 636.1939143 329.53620131 631.15472133 322.12187195 626.14074707 C311.25517638 618.78267092 300.5949251 611.17580151 290.0110321 603.4185791 C275.68258812 591.72917212 275.68258812 591.72917212 258.93437195 585.82824707 C262.6640112 591.42270596 267.85044823 595.34117496 273.0632782 599.50012207 C276.70274116 602.45130564 280.15888661 605.57602761 283.62187195 608.73059082 C285.59821567 610.52332153 287.59893925 612.27619934 289.62187195 614.01574707 C294.85551302 618.5767917 299.89160289 623.35263774 304.9539032 628.10168457 C307.48202083 630.47321488 310.01981426 632.83321808 312.5710907 635.17980957 C320.66670846 642.64374543 328.51182805 650.32219444 336.23808289 658.16882324 C340.31834828 662.2948413 344.47486448 666.22157105 348.87406921 670.00378418 C352.88340051 673.55417318 356.6472247 677.35668382 360.43437195 681.14074707 C361.25679382 681.95092285 362.0792157 682.76109863 362.92655945 683.5958252 C363.70257507 684.36990723 364.4785907 685.14398926 365.27812195 685.94152832 C365.98130554 686.64060303 366.68448914 687.33967773 367.40898132 688.05993652 C368.93437195 689.82824707 368.93437195 689.82824707 368.93437195 691.82824707 C369.59437195 692.15824707 370.25437195 692.48824707 370.93437195 692.82824707 C371.59437195 693.15824707 372.25437195 693.48824707 372.93437195 693.82824707 C372.93437195 694.48824707 372.93437195 695.14824707 372.93437195 695.82824707 C374.26529859 696.49970556 375.59920209 697.16526617 376.93437195 697.82824707 C378.39780003 699.11008188 379.81382624 700.44754917 381.18437195 701.82824707 C381.8907782 702.52949707 382.59718445 703.23074707 383.32499695 703.95324707 C384.93437195 705.82824707 384.93437195 705.82824707 384.93437195 707.82824707 C385.92437195 708.15824707 386.91437195 708.48824707 387.93437195 708.82824707 C389.5476532 710.42980957 389.5476532 710.42980957 391.24687195 712.45324707 C391.8604657 713.17383301 392.47405945 713.89441895 393.10624695 714.63684082 C394.24468821 716.0015108 395.38057087 717.36832448 396.51249695 718.73840332 C398.84949696 721.53665334 401.05069981 723.92477445 403.87187195 726.26574707 C406.98927142 728.87418336 409.45674297 731.63975313 412.08280945 734.72277832 C413.95530884 736.85205505 415.91220787 738.84121711 417.93437195 740.82824707 C421.14922778 743.99990906 424.15155843 747.28691034 427.09843445 750.70715332 C432.30482791 756.72219939 437.70071119 762.5741701 443.05937195 768.45324707 C446.44862187 772.17620775 449.78871948 775.93419423 453.09062195 779.73449707 C456.1931908 783.25775323 459.37194354 786.71177148 462.53593445 790.17980957 C464.48674337 792.33396014 466.40830807 794.50543176 468.30937195 796.70324707 C471.44461789 800.31398055 474.6836303 803.82192987 477.93437195 807.32824707 C484.66916855 814.60013675 491.14495994 822.0576393 497.53837585 829.63122559 C500.96610636 833.69056329 504.41257433 837.73328468 507.87187195 841.76574707 C508.62065613 842.63924805 508.62065613 842.63924805 509.38456726 843.53039551 C511.88509733 846.44580453 514.3903033 849.35701584 516.90312195 852.26184082 C524.42746351 860.97456242 531.70704177 869.86841099 538.93437195 878.82824707 C541.14036138 881.55931773 543.34876475 884.2884129 545.55937195 887.01574707 C546.09707214 887.67969482 546.63477234 888.34364258 547.18876648 889.02770996 C550.64805324 893.2854148 554.17614817 897.47635773 557.74687195 901.64074707 C561.79979321 906.37132719 565.50566827 911.27900809 569.11405945 916.35559082 C570.75520186 918.58486796 572.46158144 920.64489439 574.30937195 922.70324707 C583.08465752 932.48877996 590.66334534 943.42835855 598.5266571 953.9473877 C599.81996762 955.67539051 601.11643356 957.40094713 602.4148407 959.12512207 C604.59452664 962.02136569 606.76654532 964.92311896 608.93437195 967.82824707 C609.70394226 968.85562988 610.47351257 969.8830127 611.2664032 970.94152832 C612.37048523 972.4323291 612.37048523 972.4323291 613.49687195 973.95324707 C614.48880554 975.28742676 614.48880554 975.28742676 615.5007782 976.64855957 C616.93437195 978.82824707 616.93437195 978.82824707 616.93437195 980.82824707 C617.59437195 980.82824707 618.25437195 980.82824707 618.93437195 980.82824707 C620.5632782 982.81262207 620.5632782 982.81262207 622.49687195 985.57824707 C625.43909616 989.73040769 628.42410559 993.83406409 631.49687195 997.89074707 C634.8233121 1002.31081138 638.04159505 1006.78681326 641.1882782 1011.33605957 C643.06248648 1014.01110405 644.99494933 1016.63766191 646.93437195 1019.26574707 C650.14155332 1023.65645808 653.08198343 1028.15457292 655.96562195 1032.76184082 C658.31594144 1036.4225567 660.77188413 1040.00112294 663.24687195 1043.57824707 C668.17886654 1050.70872946 673.01250358 1057.89917348 677.80400085 1065.12463379 C679.46822408 1067.63283026 681.138876 1070.1367253 682.80937195 1072.64074707 C685.14530945 1076.14465332 687.48124695 1079.64855957 689.81718445 1083.15246582 C690.3266864 1083.91663818 690.83618835 1084.68081055 691.36112976 1085.46813965 C692.41025837 1087.04199537 693.45908636 1088.61605154 694.50761414 1090.19030762 C696.70816928 1093.49357612 698.91163097 1096.79449978 701.12968445 1100.08605957 C705.65162263 1106.80489079 709.97219766 1113.63218881 714.2429657 1120.51184082 C716.07111625 1123.45342179 717.918539 1126.38158425 719.7820282 1129.30090332 C730.63387738 1146.31234862 740.77739418 1163.71853176 750.75468445 1181.25402832 C754.37177721 1187.60636065 758.02830175 1193.93579399 761.68437195 1200.26574707 C762.95914911 1202.47536081 764.23388999 1204.68499548 765.5085907 1206.89465332 C767.48602739 1210.32167217 769.46661398 1213.74677768 771.4539032 1217.16809082 C774.89246647 1223.10592176 778.10260436 1229.10023767 781.12187195 1235.26184082 C783.5120686 1240.04082481 786.11496231 1244.70660525 788.68437195 1249.39074707 C790.76916716 1253.20244926 792.85229223 1257.01506096 794.93437195 1260.82824707 C795.36798035 1261.62118164 795.80158875 1262.41411621 796.24833679 1263.2310791 C802.63085574 1274.95391784 808.33088527 1286.94901345 813.89732361 1299.07783508 C816.4854208 1304.71636558 819.12515546 1310.32240542 821.84623718 1315.89782715 C830.01571687 1332.66363206 837.35310855 1349.80896287 844.79081726 1366.90783691 C846.67909248 1371.24692596 848.5818814 1375.57947391 850.48905945 1379.91027832 C870.49017904 1425.40423935 887.46380495 1472.09714509 902.80644226 1519.35461426 C903.74554089 1522.2467128 904.69358376 1525.13560476 905.64530945 1528.02355957 C907.14084768 1532.60583663 908.55066315 1537.21109162 909.93437195 1541.82824707 C910.40713562 1543.39324951 910.40713562 1543.39324951 910.88945007 1544.98986816 C917.15713651 1565.89658465 922.62892191 1587.00624845 928.00676727 1608.15571594 C928.55938427 1610.32829552 929.11312426 1612.50058671 929.66697693 1614.67285156 C930.54659565 1618.12546488 931.42174583 1621.57918162 932.29325104 1625.03385162 C932.77691888 1626.94880238 933.26360645 1628.86298961 933.75035095 1630.77716064 C934.18296234 1632.50111053 934.18296234 1632.50111053 934.62431335 1634.2598877 C934.87838959 1635.26684692 935.13246582 1636.27380615 935.39424133 1637.3112793 C935.93437195 1639.82824707 935.93437195 1639.82824707 935.93437195 1642.82824707 C934.19487 1642.82092285 934.19487 1642.82092285 931.6960907 1642.27355957 C930.75007996 1642.07480225 929.80406921 1641.87604492 928.82939148 1641.67126465 C927.77091003 1641.43431885 926.71242859 1641.19737305 925.62187195 1640.95324707 C923.30048619 1640.45868222 920.97885804 1639.96525414 918.6570282 1639.47277832 C917.40293152 1639.20288086 916.14883484 1638.9329834 914.85673523 1638.65490723 C910.91110951 1637.81469102 906.95424871 1637.03992953 902.9929657 1636.27746582 C851.5920101 1626.35141709 800.91921069 1613.35697596 750.93437195 1597.82824707 C749.73586609 1597.45603027 748.53736023 1597.08381348 747.30253601 1596.70031738 C741.225904 1594.80193758 735.16621215 1592.85612997 729.11747742 1590.87072754 C726.87328797 1590.13574603 724.62734791 1589.40609932 722.38017273 1588.68029785 C690.71277509 1578.44853839 659.27347292 1567.21202752 628.70976257 1554.0201416 C625.70325594 1552.72899405 622.6872179 1551.46225507 619.66874695 1550.19934082 C585.27827137 1535.79325184 551.42105078 1520.21862642 517.93437195 1503.82824707 C517.30430237 1503.52040283 516.67423279 1503.21255859 516.02507019 1502.89538574 C500.43024428 1495.27362363 485.07143742 1487.40005818 470.0242157 1478.73059082 C465.63457046 1476.20603533 461.18495059 1473.834796 456.68437195 1471.51574707 C445.52877065 1465.72815123 434.82075586 1459.12930336 424.04081726 1452.67883301 C420.65892556 1450.66415688 417.26014251 1448.6806018 413.85551453 1446.70471191 C405.36581989 1441.77155204 397.12257119 1436.50421024 388.91288757 1431.12023926 C386.5132815 1429.55327043 384.09962791 1428.00918974 381.68363953 1426.46765137 C357.52086849 1411.04110873 333.39118207 1395.07781909 311.12333679 1376.9942627 C307.65250224 1374.18022402 304.13988326 1371.48205571 300.49687195 1368.89074707 C293.6842077 1364.01730618 287.25872733 1358.67024551 280.79130554 1353.35314941 C278.28389284 1351.29407766 275.76419682 1349.25018131 273.24687195 1347.20324707 C268.71233251 1343.49131523 264.23746721 1339.7125885 259.77397156 1335.91589355 C256.32258507 1332.98516166 252.83201004 1330.11095476 249.30937195 1327.26574707 C244.54199192 1323.38661252 239.99234208 1319.308785 235.4695282 1315.14855957 C233.40111436 1313.25543504 231.31031318 1311.40573003 229.18437195 1309.57824707 C223.96674977 1305.04072228 218.95300529 1300.28120169 213.91093445 1295.55090332 C211.39623677 1293.19192393 208.87164919 1290.84480983 206.33280945 1288.51184082 C198.87809713 1281.64584605 191.61179533 1274.60898639 184.43437195 1267.45324707 C183.59752869 1266.62099609 182.76068542 1265.78874512 181.89848328 1264.93127441 C177.57838348 1260.60033644 173.42851226 1256.1903081 169.44023132 1251.55236816 C167.53599749 1249.37213157 165.51150507 1247.34337622 163.43437195 1245.32824707 C160.06337129 1241.997039 156.88923165 1238.57713079 153.8054657 1234.98059082 C151.60357366 1232.44772545 149.33241369 1229.98492185 147.05937195 1227.51574707 C143.00595841 1223.07223057 139.17253318 1218.5022661 135.3992157 1213.82043457 C133.09473853 1211.02292346 130.72980925 1208.29695333 128.33427429 1205.57800293 C121.37344106 1197.66852699 114.94793279 1189.44613838 108.61112976 1181.03283691 C106.32402123 1178.02576207 103.98667287 1175.05946725 101.65019226 1172.09069824 C94.92577549 1163.5356227 88.5229422 1154.80606106 82.33720398 1145.85461426 C81.00179706 1143.92564151 79.65521887 1142.00501019 78.3054657 1140.08605957 C59.15869314 1112.72636699 42.32106822 1083.89473247 25.93437195 1054.82824707 C25.51172058 1054.08268555 25.08906921 1053.33712402 24.65361023 1052.56896973 C17.87953703 1040.56052738 12.28387234 1027.94294779 6.57060242 1015.40686035 C5.08304752 1012.15341664 3.5755752 1008.9100808 2.0632782 1005.66809082 C-34.00506009 927.43217541 -56.63424385 843.12087839 -77.56318665 711.02746582 C-77.9872837 707.45827465 -78.43731114 703.89296523 -78.8976593 700.32824707 C-80.56288756 687.15741038 -81.74073321 673.93916986 -82.8658905 660.71295166 C-83.03340213 658.75049436 -83.20364054 656.78826664 -83.37742615 654.82635498 C-86.89532704 614.78843036 -87.40079139 574.62302215 -87.32637024 534.4564209 C-87.31494537 528.24435419 -87.32178613 522.03245836 -87.33324909 515.82039738 C-87.37923886 486.43260587 -86.90461769 457.16160045 -85.06562805 427.82824707 C-84.99237305 426.63627716 -84.91911804 425.44430725 -84.84364319 424.21621704 C-84.42932791 417.64256722 -83.93449119 411.07879496 -83.37812805 404.51574707 C-83.2973703 403.54250488 -83.21661255 402.5692627 -83.13340759 401.56652832 C-80.88775298 374.73662767 -77.7877364 347.99766068 -74.4889679 321.27941895 C-74.1032663 318.13508345 -73.72695766 314.98982125 -73.35469055 311.84387207 C-69.73053512 281.47848688 -63.93556646 251.52331678 -58.12812805 221.51574707 C-57.93468685 220.51477997 -57.74124565 219.51381287 -57.5419426 218.48251343 C-48.29724445 170.68163963 -37.58721078 123.47663458 -24.5214386 76.57507324 C-23.67665529 73.54214937 -22.83653083 70.50800089 -22.00093079 67.47253418 C-19.72520452 59.20821623 -17.41489565 50.9555994 -15.0346508 42.72071648 C-13.65007658 37.91732496 -12.32239866 33.10132973 -11.02172756 28.27458096 C-10.12021234 24.96833265 -9.17880009 21.67435733 -8.22757912 18.38210487 C-7.78099955 16.80566435 -7.35091998 15.22444961 -6.93805504 13.63884544 C-3.76473301 1.50953076 -3.76473301 1.50953076 0 0 Z " fill="#0e540b" transform="translate(119.06562805175781,54.1717529296875)"/>
</svg>
