<svg version="1.2" xmlns="http://www.w3.org/2000/svg" viewBox="0 0 250 250" width="250" height="250">
	<style>
		.s0 { fill: #ffffff } 
	</style>
	<path id="Color Fill 1" class="s0" d="m20.89 36.15c-0.22 0.15-0.56 1.13-0.77 2.17-0.2 1.04-0.48 2.03-0.61 2.21-0.14 0.17-0.37 1.02-0.51 1.87-0.15 0.85-0.38 1.61-0.51 1.67-0.13 0.07-0.24 0.84-0.24 1.72 0 0.87-0.14 1.59-0.32 1.59-0.17 0-0.39 0.93-0.48 2.07-0.08 1.14-0.26 2.07-0.39 2.07-0.14 0-0.35 0.75-0.48 1.67-0.13 0.92-0.33 2.39-0.45 3.27-0.11 0.87-0.3 1.66-0.43 1.75-0.12 0.09-0.46 2.31-0.75 4.94-0.29 2.63-0.53 5.24-0.53 5.81 0.01 0.57-0.12 1.07-0.27 1.12-0.16 0.04-0.48 3.02-0.72 6.61-0.24 3.59-0.43 11.62-0.43 17.84 0 7.25 0.17 13.34 0.48 16.97 0.26 3.11 0.58 5.65 0.71 5.65 0.13 0 0.24 0.5 0.24 1.11 0 0.62 0.22 2.73 0.48 4.7 0.27 1.97 0.62 3.87 0.78 4.22 0.15 0.35 0.47 1.82 0.7 3.27 0.24 1.45 0.53 2.63 0.67 2.63 0.13 0 0.31 0.64 0.39 1.43 0.09 0.79 0.31 1.43 0.48 1.43 0.18 0 0.32 0.58 0.32 1.28 0 0.7 0.11 1.33 0.24 1.39 0.13 0.07 0.36 0.68 0.51 1.36 0.15 0.68 0.46 1.52 0.68 1.87 0.23 0.35 0.5 1.17 0.6 1.83 0.11 0.66 0.34 1.19 0.52 1.19 0.17 0 0.47 0.69 0.65 1.52 0.19 0.83 0.97 2.84 1.75 4.46 0.78 1.62 1.42 3.09 1.42 3.26 0 0.18 0.11 0.32 0.24 0.32 0.13-0.01 0.49 0.53 0.79 1.19 0.3 0.66 0.56 1.38 0.56 1.6 0 0.22 0.11 0.4 0.24 0.4 0.13 0 0.39 0.27 0.56 0.6 0.18 0.34 0.6 1.16 0.94 1.84 0.34 0.67 0.73 1.29 0.86 1.38 0.13 0.09 0.46 0.7 0.73 1.35 0.27 0.66 0.6 1.19 0.74 1.19 0.13-0.01 0.45 0.43 0.71 0.97 0.27 0.53 0.55 0.96 0.64 0.95 0.09-0.01 0.37 0.42 0.64 0.96 0.26 0.54 0.55 0.97 0.63 0.97 0.09-0.01 0.52 0.52 0.95 1.18 0.43 0.66 1.12 1.62 1.54 2.15 0.41 0.52 1.06 1.36 1.44 1.86 0.38 0.49 1.09 1.32 1.57 1.83 0.48 0.51 0.88 1 0.88 1.09 0 0.08 0.61 0.8 1.35 1.58 0.74 0.79 1.53 1.43 1.75 1.44 0.22 0 0.4 0.15 0.4 0.32 0 0.18 1 1.32 2.23 2.55 1.23 1.23 2.34 2.23 2.47 2.22 0.13 0 0.45 0.35 0.72 0.8 0.26 0.44 0.8 0.94 1.19 1.12 0.4 0.18 0.71 0.43 0.7 0.56 0 0.13 1.29 1.24 2.87 2.47 1.59 1.22 2.88 2.34 2.88 2.47 0 0.13 0.15 0.24 0.32 0.24 0.18 0 0.5 0.14 0.72 0.32 0.22 0.17 0.9 0.75 1.51 1.27 0.61 0.52 1.22 0.95 1.35 0.95 0.14 0 0.45 0.18 0.71 0.4 0.26 0.22 0.69 0.58 0.96 0.8 0.27 0.22 0.63 0.4 0.8 0.4 0.18 0 0.39 0.21 0.48 0.48 0.09 0.26 0.38 0.47 0.64 0.47 0.26 0 0.48 0.15 0.48 0.32 0 0.18 0.36 0.39 0.79 0.48 0.44 0.09 0.8 0.3 0.8 0.48 0 0.17 0.32 0.41 0.72 0.53 0.39 0.11 1.07 0.54 1.51 0.95 0.44 0.41 0.98 0.75 1.19 0.75 0.22 0 0.44 0.11 0.48 0.26 0.05 0.14 1.37 0.88 2.95 1.63 1.58 0.76 2.94 1.49 3.03 1.63 0.08 0.13 0.58 0.36 1.11 0.49 0.53 0.13 1.14 0.43 1.35 0.66 0.22 0.23 0.62 0.42 0.88 0.42 0.26 0 0.87 0.28 1.35 0.62 0.49 0.34 1.35 0.74 1.92 0.88 0.58 0.14 1.04 0.36 1.04 0.5-0.01 0.13 0.42 0.31 0.95 0.39 0.52 0.09 0.95 0.27 0.95 0.4 0 0.13 0.61 0.43 1.36 0.67 0.74 0.23 1.96 0.7 2.7 1.03 0.75 0.34 1.57 0.61 1.84 0.61 0.26 0 0.55 0.15 0.63 0.32 0.09 0.18 0.74 0.39 1.44 0.48 0.7 0.09 1.34 0.3 1.43 0.48 0.09 0.17 0.52 0.31 0.96 0.31 0.43 0 0.79 0.15 0.79 0.32 0 0.18 0.72 0.39 1.6 0.48 0.87 0.09 1.59 0.3 1.59 0.48 0 0.17 1.59 0.57 3.55 0.88 2.14 0.33 3.59 0.71 3.66 0.95 0.06 0.22 0.4 0.4 0.75 0.4 0.35 0 0.93-0.29 1.28-0.64 0.56-0.56 0.61-0.87 0.4-2.58-0.14-1.07-0.35-2-0.48-2.07-0.13-0.07-0.24-0.91-0.24-1.88 0-0.96-0.14-1.75-0.32-1.75-0.17 0-0.39-0.79-0.48-1.75-0.08-0.97-0.3-1.76-0.48-1.76-0.17 0-0.49-1-0.71-2.23-0.22-1.23-0.47-2.23-0.56-2.22-0.09 0-0.45-1.29-0.8-2.87-0.35-1.59-0.7-2.88-0.79-2.87-0.09 0.01-0.38-0.78-0.64-1.75-0.26-0.97-0.58-1.76-0.72-1.76-0.13 0-0.3-0.39-0.37-0.87-0.08-0.48-0.29-1.56-0.48-2.39-0.19-0.83-0.48-1.51-0.66-1.51-0.17 0-0.32-0.22-0.32-0.48 0-0.26-0.14-0.48-0.32-0.48-0.17 0-0.32-0.57-0.32-1.27 0-0.7-0.14-1.28-0.31-1.28-0.18 0-0.32-0.14-0.32-0.32 0-0.17-0.24-0.85-0.52-1.51-0.28-0.66-0.91-2.05-1.4-3.11-0.48-1.05-0.96-2.37-1.07-2.94-0.11-0.57-0.31-1.03-0.44-1.03-0.13 0-0.43-0.61-0.67-1.35-0.24-0.75-0.52-1.44-0.64-1.52-0.11-0.09-0.45-0.7-0.76-1.36-0.3-0.66-0.56-1.41-0.56-1.67 0-0.26-0.1-0.47-0.23-0.47-0.14 0.01-0.45-0.46-0.7-1.03-0.26-0.58-0.55-1.12-0.66-1.21-0.11-0.09-0.46-0.8-0.77-1.59-0.31-0.79-0.84-1.83-1.17-2.31-0.33-0.48-0.61-1.02-0.61-1.2 0-0.17-0.25-0.77-0.55-1.34-0.31-0.56-0.74-1.2-0.96-1.43-0.22-0.23-0.49-0.73-0.6-1.13-0.1-0.39-0.37-0.93-0.6-1.19-0.22-0.27-0.86-1.34-1.41-2.39-0.56-1.05-1.12-1.99-1.24-2.07-0.13-0.09-0.51-0.79-0.86-1.55-0.34-0.77-0.82-1.56-1.05-1.76-0.24-0.19-0.74-1-1.12-1.79-0.38-0.79-0.88-1.65-1.12-1.91-0.25-0.27-0.68-0.88-0.96-1.36-0.29-0.48-0.63-0.88-0.76-0.88-0.13 0.01-0.31-0.35-0.4-0.79-0.08-0.44-0.3-0.8-0.47-0.8-0.18 0-0.32-0.21-0.32-0.47 0-0.27-0.29-0.77-0.64-1.12-0.35-0.35-0.84-1.1-1.09-1.67-0.25-0.57-0.75-1.25-1.12-1.51-0.36-0.27-0.66-0.7-0.67-0.96 0-0.26-0.5-1.05-1.11-1.75-0.61-0.7-1.11-1.38-1.11-1.52 0-0.13-0.5-0.77-1.12-1.43-0.61-0.66-1.11-1.34-1.11-1.51 0.01-0.18-0.39-0.77-0.87-1.32-0.48-0.54-1.1-1.26-1.37-1.59-0.28-0.33-0.7-0.96-0.94-1.39-0.24-0.44-0.77-1.16-1.17-1.6-0.41-0.43-0.74-0.97-0.74-1.19 0-0.22-0.25-0.47-0.56-0.55-0.31-0.08-0.88-0.69-1.27-1.35-0.39-0.66-1.1-1.66-1.59-2.22-0.49-0.55-1.31-1.54-1.84-2.19-0.53-0.66-1.18-1.42-1.45-1.7-0.27-0.28-0.74-0.91-1.04-1.39-0.29-0.48-0.5-0.95-0.46-1.04 0.05-0.09 0.75 0.45 1.56 1.19 0.81 0.75 2.28 2.12 3.27 3.04 0.98 0.92 1.86 1.67 1.94 1.67 0.09 0 0.53 0.32 0.97 0.72 0.45 0.39 2.92 2.81 5.5 5.38 2.57 2.57 5.33 5.35 6.12 6.18 0.79 0.83 1.66 1.67 1.93 1.86 0.28 0.2 0.64 0.58 0.8 0.86 0.16 0.29 1.01 1.35 1.89 2.37 0.87 1.02 1.88 2.16 2.23 2.52 0.35 0.37 0.85 0.97 1.11 1.33 0.26 0.36 1.12 1.42 1.91 2.36 0.79 0.93 1.87 2.14 2.39 2.68 0.53 0.54 1.23 1.49 1.57 2.1 0.34 0.61 0.85 1.32 1.14 1.59 0.28 0.26 1.06 1.26 1.72 2.23 0.65 0.96 1.54 2.25 1.96 2.86 0.43 0.62 1.06 1.48 1.41 1.91 0.35 0.44 0.64 0.98 0.64 1.2 0 0.22 0.18 0.45 0.4 0.51 0.22 0.06 0.65 0.63 0.96 1.27 0.31 0.64 0.77 1.24 1.03 1.33 0.27 0.08 0.48 0.44 0.48 0.79 0 0.35 0.35 0.96 0.79 1.36 0.43 0.39 0.79 0.89 0.79 1.11 0.01 0.22 0.19 0.72 0.41 1.1 0.22 0.39 0.6 0.93 0.85 1.2 0.24 0.27 0.57 0.88 0.72 1.36 0.14 0.49 0.41 0.88 0.58 0.88 0.18 0 0.33 0.18 0.33 0.4 0.01 0.22 0.34 0.83 0.74 1.35 0.4 0.53 0.93 1.46 1.17 2.07 0.25 0.62 0.71 1.41 1.02 1.76 0.32 0.35 0.58 0.81 0.57 1.03 0 0.22 0.14 0.4 0.31 0.4 0.18 0 0.32 0.21 0.32 0.48 0 0.26 0.4 1.23 0.88 2.15 0.48 0.92 0.96 1.74 1.05 1.83 0.1 0.09 0.71 1.27 1.36 2.63 0.64 1.36 1.17 2.57 1.16 2.71-0.01 0.13 0.21 0.45 0.49 0.71 0.27 0.27 0.57 0.87 0.65 1.36 0.1 0.61 0.34 0.87 0.79 0.87q0.63 0 1.27-1.27c0.35-0.7 0.64-1.49 0.64-1.75 0-0.27 0.1-0.48 0.24-0.48 0.13 0 0.43-0.47 0.67-1.04 0.24-0.57 0.61-1.39 0.83-1.83 0.21-0.44 0.69-1.33 1.07-1.99 0.38-0.66 0.69-1.41 0.69-1.67 0-0.27 0.11-0.52 0.25-0.56 0.14-0.04 0.67-0.94 1.17-1.99 0.51-1.05 1-1.98 1.1-2.07 0.11-0.09 0.59-0.95 1.08-1.91 0.49-0.97 1.06-2.04 1.27-2.38 0.21-0.34 0.57-0.81 0.79-1.03 0.21-0.23 0.39-0.6 0.38-0.81 0-0.22 0.43-1.01 0.96-1.76 0.53-0.74 0.97-1.57 0.97-1.83 0-0.26 0.14-0.48 0.31-0.48 0.18 0 0.42-0.32 0.54-0.71 0.12-0.4 0.48-0.97 0.8-1.28 0.32-0.3 0.58-0.77 0.58-1.03 0-0.27 0.14-0.48 0.31-0.48 0.18 0 0.39-0.29 0.48-0.64 0.09-0.35 0.52-1.03 0.97-1.51 0.44-0.48 0.8-1.06 0.79-1.28 0-0.21 0.19-0.5 0.43-0.63 0.24-0.13 0.66-0.67 0.93-1.2 0.27-0.52 0.79-1.28 1.16-1.67 0.36-0.39 0.66-0.86 0.66-1.04 0-0.17 0.15-0.49 0.32-0.71 0.18-0.22 0.71-0.83 1.17-1.36 0.46-0.52 1.2-1.53 1.64-2.23 0.44-0.7 1.21-1.66 1.7-2.15 0.5-0.48 0.9-1.02 0.9-1.19 0-0.18 0.15-0.32 0.32-0.32 0.18 0 0.32-0.21 0.32-0.48 0-0.26 0.11-0.51 0.24-0.56 0.14-0.04 0.74-0.72 1.36-1.51 0.61-0.79 1.47-1.79 1.92-2.23 0.45-0.44 0.95-1.04 1.12-1.34 0.16-0.3 0.87-1.21 1.57-2.01 0.7-0.8 2.39-2.6 3.75-3.99 1.36-1.39 2.47-2.64 2.48-2.77 0.01-0.13 0.83-1.06 1.83-2.07 1-1 1.96-1.97 2.14-2.15 0.17-0.18 1-0.97 1.83-1.76 0.83-0.79 1.51-1.57 1.51-1.75 0-0.17 0.18-0.31 0.4-0.31 0.22 0 1.22-0.78 2.23-1.75 1.01-0.97 1.94-1.76 2.07-1.75 0.13 0 0.46-0.36 0.72-0.81 0.26-0.45 0.62-0.8 0.8-0.79 0.17 0 0.53-0.35 0.79-0.8 0.27-0.45 0.62-0.82 0.8-0.82 0.17 0 0.58-0.24 0.9-0.54 0.32-0.31 0.96-0.95 1.43-1.43 0.47-0.49 0.96-0.88 1.09-0.88 0.13 0 0.64-0.35 1.12-0.79 0.48-0.44 0.95-0.73 1.03-0.65 0.09 0.09-0.24 0.56-0.72 1.04-0.49 0.49-0.88 0.95-0.87 1.04 0.02 0.09-0.52 0.77-1.18 1.51-0.66 0.74-1.39 1.57-1.61 1.83-0.22 0.27-0.39 0.56-0.39 0.64 0 0.09-0.47 0.65-1.04 1.25-0.57 0.6-1.25 1.34-1.51 1.65-0.27 0.31-0.62 0.81-0.8 1.11-0.18 0.3-0.89 1.22-1.59 2.05-0.7 0.82-1.67 1.95-2.15 2.5-0.48 0.55-0.87 1.18-0.87 1.4-0.01 0.22-0.4 0.81-0.89 1.31-0.48 0.5-1.12 1.22-1.43 1.59-0.31 0.38-0.56 0.79-0.56 0.92 0 0.13-0.47 0.84-1.03 1.58-0.57 0.73-1.72 2.28-2.55 3.42-0.83 1.15-1.51 2.23-1.51 2.41 0 0.18-0.15 0.32-0.32 0.32-0.18 0-0.32 0.18-0.32 0.4 0 0.22-0.36 0.83-0.81 1.35-0.44 0.53-0.8 1.14-0.79 1.35 0 0.22-0.1 0.4-0.23 0.4-0.13 0-0.52 0.46-0.86 1.03-0.34 0.58-0.74 1.19-0.89 1.36-0.15 0.18-0.87 1.25-1.6 2.39-0.74 1.14-1.59 2.5-1.9 3.03-0.32 0.52-0.82 1.46-1.13 2.07-0.3 0.61-0.73 1.22-0.95 1.35-0.22 0.13-0.4 0.53-0.4 0.88 0 0.35-0.11 0.64-0.24 0.64-0.13 0-0.52 0.61-0.87 1.35-0.35 0.75-0.7 1.43-0.79 1.51-0.1 0.09-0.46 0.59-0.82 1.12-0.35 0.52-1.21 2.1-1.9 3.5-0.68 1.4-1.36 2.59-1.5 2.63-0.14 0.04-0.25 0.26-0.26 0.48 0 0.22-0.4 1.19-0.87 2.15-0.48 0.96-0.98 1.79-1.11 1.83-0.13 0.04-0.24 0.26-0.24 0.48 0 0.22-0.69 1.76-1.54 3.42-0.85 1.67-1.65 3.39-1.79 3.83-0.14 0.43-0.59 1.55-1.01 2.47-0.42 0.92-0.76 1.88-0.76 2.15 0 0.26-0.14 0.55-0.32 0.63-0.17 0.09-0.54 0.99-0.82 1.99-0.28 1.01-0.61 1.91-0.73 2-0.11 0.08-0.39 0.55-0.6 1.03-0.22 0.48-0.39 1.24-0.39 1.67 0 0.44-0.15 0.8-0.32 0.8-0.18 0-0.43 0.58-0.56 1.28-0.13 0.7-0.31 1.27-0.4 1.27-0.09-0.01-0.37 0.87-0.64 1.94-0.26 1.08-0.58 2.01-0.71 2.08-0.13 0.07-0.24 0.55-0.24 1.08 0 0.52-0.15 1.02-0.32 1.11-0.18 0.09-0.39 0.81-0.48 1.59-0.09 0.79-0.3 1.44-0.48 1.44-0.17 0-0.49 1-0.71 2.23-0.22 1.23-0.47 2.23-0.56 2.23-0.09-0.01-0.44 1.46-0.78 3.26-0.34 1.8-0.7 3.34-0.81 3.43-0.11 0.09-0.38 1.38-0.6 2.86-0.22 1.49-0.57 3.04-0.78 3.43-0.3 0.57-0.28 0.88 0.1 1.52 0.43 0.73 0.68 0.81 2.47 0.8 1.56-0.01 1.99-0.12 1.99-0.49q-0.01-0.48 1.04-0.48c0.57 0 3.04-0.22 5.49-0.49 2.46-0.26 4.68-0.6 4.94-0.75 0.26-0.14 1.38-0.35 2.47-0.47 1.1-0.11 2.06-0.34 2.15-0.52 0.09-0.17 0.59-0.32 1.12-0.32 0.52 0 0.95-0.14 0.95-0.31 0-0.18 0.86-0.39 1.91-0.48 1.05-0.09 1.91-0.3 1.91-0.48 0-0.17 0.69-0.41 1.52-0.52 0.83-0.1 1.73-0.3 1.99-0.44 0.26-0.14 1.34-0.51 2.39-0.84 1.05-0.32 1.98-0.68 2.07-0.79 0.09-0.11 0.66-0.3 1.27-0.43 0.62-0.13 1.26-0.35 1.44-0.48 0.17-0.13 0.75-0.33 1.27-0.46 0.53-0.12 1.35-0.39 1.83-0.6 0.49-0.21 0.88-0.48 0.88-0.62 0-0.13 0.21-0.24 0.48-0.24 0.26 0 1.16-0.29 1.99-0.65 0.83-0.36 1.8-0.78 2.15-0.94 0.35-0.15 1.42-0.62 2.39-1.05 0.96-0.42 2.36-1.03 3.11-1.37 0.75-0.33 1.36-0.71 1.35-0.84 0-0.13 0.25-0.24 0.56-0.23 0.3 0.01 0.77-0.21 1.03-0.49 0.26-0.28 0.66-0.5 0.88-0.49 0.22 0.01 0.39-0.1 0.39-0.23 0-0.13 0.68-0.56 1.51-0.95 0.84-0.4 1.8-0.9 2.15-1.12 0.34-0.22 0.81-0.58 1.05-0.79 0.24-0.22 0.58-0.4 0.76-0.4 0.17 0 0.52-0.18 0.76-0.4 0.24-0.22 0.63-0.54 0.86-0.72 0.23-0.17 0.96-0.6 1.61-0.95 0.66-0.35 1.27-0.82 1.35-1.04 0.08-0.22 0.33-0.4 0.55-0.4 0.22 0 0.79-0.35 1.27-0.79 0.48-0.44 1.02-0.8 1.2-0.8 0.17 0 0.42-0.19 0.55-0.41 0.14-0.23 0.89-0.79 1.68-1.25 0.79-0.46 1.65-1.1 1.93-1.42 0.27-0.32 0.89-0.87 1.37-1.22 0.48-0.35 1.51-1.25 2.29-1.99 0.78-0.75 1.42-1.5 1.42-1.67 0-0.18 0.35-0.39 0.79-0.48 0.44-0.09 0.8-0.3 0.8-0.48 0-0.18 0.89-1.22 1.99-2.32 1.1-1.11 2.71-2.84 3.58-3.87 0.88-1.02 1.81-2.2 2.07-2.62 0.27-0.42 0.73-0.83 1.04-0.91 0.31-0.09 0.63-0.41 0.71-0.71 0.08-0.31 0.4-0.85 0.72-1.2 0.31-0.35 1.13-1.42 1.81-2.39 0.68-0.96 1.36-1.79 1.51-1.83 0.15-0.04 0.27-0.26 0.27-0.48 0-0.22 0.32-0.76 0.71-1.21 0.4-0.45 0.94-1.28 1.2-1.85 0.26-0.56 0.58-1.02 0.72-1.01 0.13 0.01 0.24-0.2 0.24-0.47 0-0.26 0.14-0.47 0.31-0.47 0.18 0 0.32-0.29 0.32-0.64 0-0.35 0.15-0.64 0.32-0.64 0.18 0 0.39-0.36 0.48-0.8 0.09-0.43 0.3-0.79 0.48-0.79 0.17 0 0.31-0.25 0.3-0.56-0.01-0.31 0.22-0.77 0.51-1.04 0.29-0.26 1.28-2.05 2.21-3.98 0.92-1.92 1.87-4 2.1-4.62 0.23-0.61 0.5-1.18 0.6-1.27 0.1-0.09 0.57-1.13 1.05-2.31 0.48-1.18 0.87-2.37 0.87-2.63 0-0.26 0.15-0.48 0.32-0.48 0.18 0 0.32-0.36 0.32-0.79 0-0.44 0.11-0.8 0.24-0.79 0.13 0 0.55-0.9 0.93-2 0.37-1.09 0.77-2.46 0.87-3.03 0.1-0.57 0.3-1.03 0.43-1.03 0.13 0 0.43-0.89 0.66-1.99 0.24-1.1 0.54-2.14 0.68-2.31 0.14-0.18 0.51-1.54 0.83-3.03 0.31-1.49 0.67-2.78 0.78-2.87 0.12-0.09 0.45-1.3 0.73-2.71 0.28-1.4 0.7-3.36 0.92-4.35 0.23-0.99 0.53-1.92 0.66-2.07 0.14-0.15 0.25-1.16 0.24-2.26 0-1.12 0.13-1.99 0.31-1.99 0.18 0 0.32-0.43 0.32-0.95 0-0.53 0.2-1.71 0.44-2.63 0.25-0.92 0.62-3.39 0.82-5.5 0.21-2.1 0.49-4.04 0.63-4.3 0.14-0.26 0.43-3.06 0.64-6.21 0.21-3.15 0.55-6.31 0.76-7.01 0.27-0.91 0.37-6.21 0.37-18.54 0-13.51-0.08-17.36-0.4-17.68-0.26-0.27-0.4-1.33-0.39-2.96 0-1.41-0.13-2.98-0.31-3.51-0.18-0.55-0.62-1.05-1.04-1.18-0.4-0.13-2.55-0.13-4.79 0-2.23 0.12-4.06 0.3-4.06 0.38 0.01 0.09-1.75 0.28-3.9 0.42-2.14 0.15-3.94 0.4-3.98 0.56-0.04 0.17-0.73 0.3-1.51 0.3-0.79 0-1.49 0.11-1.56 0.24-0.07 0.13-1.25 0.35-2.63 0.49-1.38 0.14-3.51 0.41-4.73 0.59-1.23 0.18-2.45 0.42-2.71 0.52-0.27 0.1-1.41 0.38-2.55 0.61-1.14 0.24-2.47 0.5-2.95 0.58-0.48 0.09-0.87 0.3-0.87 0.47 0 0.18-0.79 0.39-1.76 0.48-0.96 0.09-1.82 0.3-1.91 0.48-0.09 0.17-0.77 0.41-1.51 0.52-0.75 0.11-1.57 0.31-1.83 0.45-0.27 0.13-1.38 0.5-2.47 0.83-1.1 0.32-1.99 0.7-1.99 0.83 0 0.13-0.33 0.24-0.72 0.25-0.39 0-1.29 0.28-1.99 0.62-0.7 0.34-1.53 0.62-1.83 0.63-0.31 0.01-0.56 0.15-0.56 0.33 0 0.17-0.18 0.31-0.4 0.31-0.22-0.01-0.83 0.21-1.35 0.47-0.53 0.27-1.21 0.49-1.52 0.49-0.3 0-0.55 0.15-0.55 0.32 0 0.18-0.5 0.39-1.12 0.48-0.61 0.09-1.11 0.3-1.11 0.48 0 0.17-0.22 0.32-0.48 0.32-0.26 0-1.37 0.48-2.47 1.08-1.1 0.59-2.46 1.16-3.03 1.27-0.57 0.11-1.03 0.34-1.03 0.51 0 0.18-0.32 0.42-0.72 0.53-0.39 0.12-1 0.48-1.35 0.81-0.35 0.32-0.88 0.58-1.17 0.58-0.3 0-0.73 0.17-0.97 0.39-0.24 0.22-0.72 0.58-1.06 0.8-0.34 0.22-0.91 0.53-1.26 0.69-0.35 0.15-0.93 0.56-1.28 0.9-0.35 0.34-0.99 0.73-1.43 0.88-0.44 0.14-0.99 0.42-1.23 0.61-0.23 0.19-0.74 0.63-1.13 0.98-0.38 0.35-1.05 0.82-1.48 1.03-0.43 0.22-1.07 0.58-1.42 0.8-0.34 0.22-0.95 0.72-1.35 1.12-0.39 0.39-0.83 0.71-0.96 0.71-0.13 0-0.52 0.25-0.87 0.58-0.35 0.32-0.88 0.71-1.17 0.88-0.29 0.16-1.11 0.8-1.83 1.41-0.72 0.62-2.13 1.88-3.14 2.8-1 0.93-1.94 1.68-2.07 1.67-0.13 0-0.24 0.14-0.24 0.31 0 0.18-0.28 0.61-0.63 0.96-0.35 0.35-0.71 0.63-0.8 0.63-0.09 0-0.62 0.53-1.19 1.17-0.57 0.65-1.83 1.97-2.8 2.95-0.97 0.98-2.11 2.28-2.53 2.89-0.42 0.62-0.95 1.33-1.18 1.6-0.23 0.26-0.85 0.98-1.38 1.59-0.53 0.61-1.05 1.4-1.16 1.75-0.11 0.35-0.46 0.85-0.78 1.12-0.32 0.26-0.59 0.65-0.59 0.87-0.01 0.22-0.12 0.4-0.26 0.4-0.13 0-0.52 0.53-0.87 1.19-0.35 0.66-0.73 1.27-0.84 1.36-0.11 0.09-0.5 0.66-0.86 1.27-0.36 0.62-1.04 1.84-1.51 2.71-0.47 0.88-0.95 1.67-1.05 1.75-0.11 0.09-0.45 0.7-0.76 1.36-0.31 0.65-0.56 1.34-0.56 1.51 0 0.18-0.25 0.59-0.55 0.93-0.31 0.33-0.76 1.16-1.01 1.83-0.24 0.67-0.84 2.08-1.33 3.13-0.48 1.06-0.99 2.35-1.11 2.87-0.13 0.53-0.33 1.03-0.45 1.12-0.12 0.08-0.64 1.29-1.15 2.67-0.51 1.38-1.04 2.56-1.17 2.62-0.13 0.07-0.24 0.48-0.24 0.92 0 0.44-0.14 0.8-0.31 0.8-0.18 0-0.4 0.57-0.48 1.27-0.09 0.7-0.31 1.27-0.48 1.27-0.18 0-0.32 0.25-0.31 0.56 0 0.31-0.19 0.85-0.43 1.2-0.24 0.35-0.52 0.49-0.62 0.31-0.09-0.17-0.41-1.46-0.7-2.86-0.3-1.4-0.65-2.69-0.8-2.87-0.14-0.17-0.42-1.14-0.61-2.15-0.19-1.01-0.46-1.83-0.59-1.83-0.13 0-0.44-0.89-0.68-1.99-0.25-1.1-0.68-2.42-0.96-2.95-0.28-0.53-0.62-0.99-0.75-1.04-0.13-0.04-0.24-0.4-0.23-0.79 0-0.4-0.23-1.22-0.51-1.83-0.29-0.62-0.83-1.76-1.2-2.55-0.38-0.79-0.77-1.51-0.87-1.6-0.09-0.08-0.44-0.87-0.76-1.75-0.33-0.87-0.69-1.66-0.8-1.75-0.11-0.09-0.41-0.66-0.65-1.27-0.24-0.62-0.52-1.19-0.62-1.28-0.1-0.09-0.6-0.8-1.11-1.59-0.52-0.79-1.1-1.72-1.29-2.07-0.2-0.35-0.85-1.4-1.46-2.32-0.6-0.93-1.2-1.68-1.33-1.68-0.13 0.01-0.24-0.2-0.24-0.46 0-0.26-0.11-0.52-0.24-0.56-0.13-0.04-0.63-0.69-1.12-1.43-0.48-0.75-1.15-1.68-1.49-2.07-0.34-0.4-0.88-1.04-1.2-1.44-0.31-0.4-0.86-1.09-1.21-1.55-0.35-0.46-1.25-1.49-2-2.31-0.75-0.81-1.36-1.58-1.35-1.71 0-0.13-0.21-0.24-0.47-0.24-0.26 0-0.48-0.14-0.48-0.32 0-0.18-0.39-0.75-0.88-1.27-0.48-0.52-1.12-1.2-1.42-1.51-0.3-0.31-1.45-1.46-2.55-2.54-1.1-1.09-2.11-1.99-2.24-1.99-0.13-0.01-0.85-0.6-1.59-1.31-0.75-0.7-1.46-1.28-1.59-1.27-0.14 0.01-0.78-0.56-1.44-1.26-0.65-0.7-1.3-1.27-1.43-1.27-0.13 0-0.45-0.18-0.71-0.4-0.25-0.22-0.68-0.58-0.95-0.8-0.27-0.22-0.64-0.4-0.81-0.4-0.18 0-0.32-0.21-0.32-0.48 0-0.26-0.21-0.47-0.48-0.47-0.26 0-0.9-0.4-1.41-0.88-0.52-0.48-1.16-1.05-1.44-1.27-0.27-0.22-0.6-0.4-0.73-0.4-0.13 0-0.6-0.32-1.04-0.72-0.45-0.39-1.38-1-2.07-1.35-0.7-0.35-1.56-0.89-1.91-1.21-0.35-0.31-0.89-0.63-1.19-0.71-0.31-0.09-0.56-0.3-0.56-0.47 0-0.18-0.29-0.32-0.64-0.32-0.35 0-0.85-0.22-1.11-0.48-0.27-0.26-0.62-0.48-0.8-0.48-0.17 0-0.43-0.18-0.56-0.39-0.13-0.22-0.7-0.65-1.27-0.96-0.57-0.31-1.25-0.56-1.51-0.56-0.27 0-0.48-0.14-0.48-0.32 0-0.17-0.32-0.41-0.72-0.52-0.39-0.11-0.79-0.29-0.88-0.4-0.08-0.11-0.55-0.45-1.03-0.76-0.48-0.3-1.09-0.55-1.35-0.55-0.27 0-0.52-0.11-0.56-0.26-0.05-0.14-1.01-0.71-2.15-1.27-1.14-0.55-2.25-1.01-2.47-1.01-0.22 0-0.4-0.15-0.4-0.32 0-0.18-0.25-0.32-0.56-0.32-0.3 0-0.84-0.2-1.19-0.45-0.35-0.24-1.64-0.71-2.87-1.03-1.23-0.32-2.3-0.66-2.39-0.76-0.09-0.1-0.7-0.43-1.35-0.73-0.66-0.29-1.98-0.54-2.95-0.54-0.96 0-1.82-0.14-1.91-0.32-0.09-0.17-0.53-0.31-0.98-0.31-0.44 0-0.98-0.23-1.19-0.51-0.21-0.28-0.77-0.71-1.26-0.95-0.48-0.25-1.27-0.67-1.75-0.93-0.48-0.26-1.88-0.56-3.1-0.66-1.23-0.1-2.41-0.05-2.62 0.1z"/>
</svg>